<svg width="511" height="324" viewBox="0 0 511 324" fill="none" xmlns="http://www.w3.org/2000/svg">
<path d="M2.125 1.83203C2.125 47.7416 6.24715 93.3618 6.24715 139.237C6.24715 168.25 14.3385 196.942 15.9418 225.802C16.6232 238.067 18.6136 249.722 18.6136 262.214C18.6136 273.156 18.6136 284.097 18.6136 295.039C18.6136 300.103 18.6136 305.166 18.6136 310.23C18.6136 313.561 20.7957 317.215 21.3617 320.612C22.1204 325.164 59.8628 320.794 62.2778 320.612C85.187 318.877 107.691 310.449 130.522 309.619C141.199 309.231 151.519 306.009 162.202 305.573C174.661 305.065 187.213 305.497 199.683 305.497C225.891 305.497 252.1 305.497 278.309 305.497C295.028 305.497 311.575 306.248 328.08 303.36C340.068 301.262 351.769 302.121 363.805 301.069C377.813 299.845 391.735 297.453 405.714 295.955C417.14 294.731 428.381 292.068 439.76 290.382C462.975 286.943 486.017 280.764 509.149 280.764" stroke="white" stroke-width="2.5012" stroke-linecap="round"/>
</svg>
