<svg width="509" height="341" viewBox="0 0 509 341" fill="none" xmlns="http://www.w3.org/2000/svg">
<path d="M16.3611 19.2092C16.3611 36.004 17.5841 53.4444 14.3763 70.0491C11.391 85.5025 12.471 101.25 10.1778 116.843C8.98666 124.943 9.49082 133.258 9.49082 141.423C9.49082 149.836 7.10808 157.764 6.66638 166.156C5.88085 181.081 5.36867 195.834 5.36867 210.813C5.36867 235.552 2.62057 260.292 2.62057 285.164C2.62057 294.528 2.62057 303.892 2.62057 313.256C2.62057 320.005 0.435966 330.304 3.99462 336.309C6.83275 341.099 11.1339 339.363 16.6664 339.363C39.9316 339.363 63.8113 340.825 86.8956 337.378C102.2 335.093 117.36 331.919 132.697 329.744C152.781 326.897 172.666 325.45 192.85 323.485C218.294 321.008 244.178 319.395 269.186 314.706C288.189 311.143 308.67 309.134 327.965 309.134C343.318 309.134 358.141 305.012 373.614 305.012C388.604 305.012 403.923 305.932 418.881 304.935C425.315 304.506 431.65 302.72 438.118 302.34C446.382 301.854 453.729 298.275 462.011 298.141C471.096 297.995 479.474 294.019 488.347 294.019C496.653 294.019 499.677 270.615 500.713 265.088C502.589 255.085 506.335 245.046 506.82 234.859C507.287 225.051 506.897 215.135 506.897 205.317C506.897 171.449 506.897 137.581 506.897 103.713C506.897 74.8328 506.897 45.9523 506.897 17.0718C506.897 8.86692 509.122 5.46875 499.721 5.46875C474.427 5.46875 447.775 7.94099 422.774 4.09471C400.289 0.635478 376.398 2.72066 353.69 2.72066C315.802 2.72066 277.914 2.72066 240.026 2.72066C192.265 2.72066 144.504 2.72066 96.743 2.72066C65.8268 2.72066 34.9107 2.72066 3.99462 2.72066" stroke="white" stroke-width="2.5012" stroke-linecap="round"/>
</svg>
