<svg width="492" height="330" viewBox="0 0 492 330" fill="none" xmlns="http://www.w3.org/2000/svg">
<path d="M480.903 1.58984C476.927 50.037 478.155 98.7237 478.155 147.315C478.155 163.275 476.071 180.88 478.46 196.705C479.716 205.027 481.983 213.838 482.277 222.201C482.51 228.84 485.025 234.638 485.025 241.285C485.025 261.746 495.697 277.192 485.788 297.01C481.525 305.537 468.94 306.782 459.529 309.072C443.911 312.87 427.79 312.493 411.513 313.423C389.47 314.682 367.503 313.621 345.635 316.934C322.591 320.426 299.517 321.487 276.169 321.743C247.943 322.054 219.608 323.117 191.284 323.117C154.926 323.117 117.359 320.334 81.3596 325.56C55.1722 329.362 27.8349 327.24 1.35938 327.24" stroke="white" stroke-width="2.5012" stroke-linecap="round"/>
</svg>
