<svg width="536" height="347" viewBox="0 0 536 347" fill="none" xmlns="http://www.w3.org/2000/svg">
<path d="M534.508 4.88494C534.508 18.201 532.554 31.4805 532.554 44.9368C532.554 58.8663 532.554 72.7958 532.554 86.7253C532.554 132.24 532.554 177.756 532.554 223.271C532.554 255.725 532.554 288.179 532.554 320.632C532.554 322.905 534.505 340.373 532.011 341.798C530.517 342.652 526.304 341.907 524.685 341.907C514.21 341.907 503.736 341.907 493.262 341.907C463.716 341.907 434.431 343.86 404.909 343.86C377.627 343.86 349.52 341.879 322.309 344.077C294.186 346.35 265.378 344.837 237.158 344.837C221.908 344.837 206.658 344.837 191.408 344.837C176.907 344.837 161.701 345.544 147.448 342.449C120.33 336.562 92.5006 334.112 65.1194 329.696C52.003 327.58 38.2725 330.263 25.339 328.013C19.4419 326.988 13.5103 327.253 7.53813 327.253C2.73765 327.253 2.11105 327.817 2.11105 322.695C2.11105 312.629 1.46514 302.335 2.32813 292.303C2.93689 285.226 4.0648 278.241 4.0648 271.137C4.0648 265.348 5.04167 259.679 5.04167 253.934C5.04167 246.467 7.74602 239.52 7.97229 232.28C8.54349 214.001 9.92604 196.068 9.92604 177.792C9.92604 137.414 9.92604 97.0368 9.92604 56.6593C9.92604 47.795 9.92604 38.9308 9.92604 30.0666C9.92604 26.4981 8.33113 18.3104 10.0889 15.0878C12.4478 10.7631 26.1948 10.7462 30.4404 10.7462C44.0594 10.7462 57.9665 8.23737 71.6862 10.3663C86.6806 12.693 101.478 15.8089 116.568 17.5843C132.385 19.4451 147.939 19.5381 163.838 19.5381C184.737 19.5381 205.716 20.5149 226.684 20.5149C254.434 20.5149 282.185 20.5149 309.935 20.5149C330.891 20.5149 351.205 19.6556 371.804 15.6306C385.507 12.9528 399.029 9.76931 412.995 9.76931C422.761 9.76931 432.146 8.01393 441.759 6.35025C452.483 4.49413 462.538 3.90806 473.399 3.90806C490.381 3.90806 507.326 4.59562 524.142 2.00859C526.844 1.59281 529.813 1.95431 532.554 1.95431" stroke="white" stroke-width="2.65546" stroke-linecap="round"/>
</svg>
