<svg width="532" height="365" viewBox="0 0 532 365" fill="none" xmlns="http://www.w3.org/2000/svg">
<path d="M519.718 2.23047C519.718 36.6257 516.658 73.2403 521.455 107.299C523.014 118.37 524.578 129.421 526.068 140.512C527.7 152.66 530.464 164.255 530.464 176.548C530.464 191.563 530.464 206.578 530.464 221.593C530.464 230.349 530.464 239.104 530.464 247.86C530.464 258.478 528.887 268.72 528.456 279.283C527.936 292.009 525.248 307.932 520.152 319.715C518.615 323.271 518.894 327.67 517.222 331.491C515.274 335.944 514.32 340.921 512.88 345.602C511.542 349.952 507.532 351.376 503.437 352.006C496.077 353.138 488.8 353.964 481.403 354.882C471.274 356.14 461.59 359.427 451.337 359.712C444.655 359.898 439.015 361.817 432.559 362.534C424.471 363.433 415.945 362.697 407.812 362.697C395.221 362.697 382.63 362.697 370.039 362.697C342.42 362.697 313.454 365.165 286.191 359.712C262.286 354.931 238.119 353.315 214.065 349.998C194.851 347.348 174.719 349.021 155.344 349.021C140.123 349.021 124.958 348.044 109.757 348.044C86.3075 348.044 62.1477 347.067 39.0418 347.067C32.2283 347.067 22.3307 348.93 16.4108 345.548C13.7104 344.004 11.299 345.886 8.81293 343.648C3.23133 338.625 3.14032 328.439 2.46324 321.668C0.346036 300.496 1.68232 278.264 3.00595 257.086C3.53478 248.625 3.93475 240.12 5.44814 231.796C7.42947 220.899 5.8823 208.464 5.8823 197.388C5.8823 181.794 5.8823 166.201 5.8823 150.607C5.8823 122.146 6.85918 93.6124 6.85918 65.2389C6.85918 54.8042 10.7667 44.9282 10.7667 34.4673C10.7667 31.8444 9.49915 20.3752 12.2863 19.8685C21.0309 18.2785 30.8549 20.7098 39.6387 20.7911C50.5263 20.8919 61.4236 20.5967 72.3098 20.7911C75.7586 20.8527 78.9274 21.9164 82.2413 22.7448C87.3368 24.0187 92.4984 23.7217 97.7085 23.7217C112.76 23.7217 127.811 23.7217 142.862 23.7217C171.137 23.7217 199.412 23.7217 227.687 23.7217C246.412 23.7217 264.521 17.5716 283.098 16.8836C296.107 16.4018 310.03 13.6704 322.932 11.8907C330.816 10.8033 337.702 10.0455 345.835 10.0455C357.394 10.0455 368.954 10.0455 380.514 10.0455C428.605 10.0455 476.575 9.06859 524.603 9.06859" stroke="white" stroke-width="2.65546" stroke-linecap="round"/>
</svg>
