<svg width="549" height="351" viewBox="0 0 549 351" fill="none" xmlns="http://www.w3.org/2000/svg">
<path d="M537.622 2.25108C467.717 2.25108 397.566 -0.400685 328.625 11.5314C306.507 15.3595 285.005 14.9504 262.577 14.9504C237.54 14.9504 212.503 14.9504 187.466 14.9504C164.148 14.9504 140.83 14.9504 117.511 14.9504C105.296 14.9504 94.0776 15.922 82.0183 17.3926C75.297 18.2123 68.0783 18.8579 61.3412 18.8579C52.1513 18.8579 42.9614 18.8579 33.7716 18.8579C30.4978 18.8579 27.4411 18.8132 24.2742 19.8348C22.4378 20.4272 17.6292 19.8757 16.1878 21.0288C12.2879 24.1488 11.2427 28.8245 9.5668 33.9452C5.96979 44.9361 7.18194 56.6916 4.19399 67.6474C0.896005 79.74 2.29452 92.8878 2.29452 105.366C2.29452 129.274 2.6602 152.849 4.19399 176.623C5.59212 198.294 6.20201 219.762 6.20201 241.585C6.20201 251.6 5.98436 261.639 6.20201 271.651C6.38003 279.84 9.62678 289.035 10.8693 297.267C11.6705 302.575 13.0401 308.986 13.0401 314.308C13.0401 319.913 13.7244 327.08 15.428 332.435C16.6788 336.366 14.284 343.339 17.4903 346.545C19.3545 348.409 26.9857 347.088 29.3214 347.088C39.7741 347.088 50.3617 346.562 60.7984 347.142C84.6951 348.47 108.756 348.065 132.762 348.065C159.598 348.065 187.654 349.11 214.113 344.7C221.005 343.551 229.12 345.809 235.768 343.723C243.902 341.171 250.889 341.961 259.212 341.009C274.293 339.286 291.527 339.008 306.645 341.009C316.412 342.302 328.037 341.067 337.308 344.157C344.677 346.613 353.973 346.111 361.73 346.111C372.953 346.111 383.903 347.19 395.052 348.119C409.131 349.292 423.198 349.041 437.384 349.041C456.573 349.041 475.882 348.794 494.856 348.065C496.611 347.997 499.83 347.242 501.423 346.545C504.349 345.265 507.428 345.537 510.269 344.157C515.239 341.743 520.869 341.873 525.899 339.49C530.984 337.081 534.77 331.638 537.025 326.628C539.155 321.895 541.529 314.37 541.529 309.044C541.529 293.882 541.614 279.159 537.73 264.596C536.299 259.228 537.622 251.659 537.622 246.144C537.622 238.944 537.622 231.744 537.622 224.544C537.622 218.176 537.622 211.809 537.622 205.441C537.622 197.307 539.575 189.565 539.575 181.562C539.575 158.495 547.39 136.57 547.39 113.615C547.39 102.29 547.39 90.9657 547.39 79.6412C547.39 70.8583 542.99 61.8704 540.769 53.4827C536.421 37.0569 534.691 19.428 534.691 2.25108" stroke="white" stroke-width="2.65546" stroke-linecap="round"/>
</svg>
