<svg width="419" height="272" viewBox="0 0 419 272" fill="none" xmlns="http://www.w3.org/2000/svg">
<path d="M417.135 4.40653C417.135 14.8063 415.609 25.1776 415.609 35.687C415.609 46.5659 415.609 57.4448 415.609 68.3237C415.609 103.871 415.609 139.418 415.609 174.965C415.609 200.312 415.609 225.658 415.609 251.005C415.609 252.78 417.132 266.422 415.185 267.535C414.018 268.202 410.728 267.62 409.463 267.62C401.282 267.62 393.102 267.62 384.922 267.62C361.846 267.62 338.975 269.146 315.918 269.146C294.611 269.146 272.659 267.598 251.408 269.315C229.444 271.09 206.944 269.909 184.905 269.909C172.995 269.909 161.084 269.909 149.174 269.909C137.849 269.909 125.973 270.46 114.842 268.044C93.6622 263.446 71.9277 261.532 50.5431 258.083C40.2992 256.431 29.5757 258.526 19.4746 256.769C14.869 255.968 10.2364 256.176 5.57219 256.176C1.82302 256.176 1.33365 256.616 1.33365 252.615C1.33365 244.754 0.829196 236.715 1.50319 228.88C1.97862 223.353 2.85952 217.897 2.85952 212.349C2.85952 207.828 3.62246 203.4 3.62246 198.913C3.62246 193.081 5.73455 187.656 5.91127 182.001C6.35738 167.726 7.43714 153.72 7.43714 139.446C7.43714 107.912 7.43714 76.3769 7.43714 44.8422C7.43714 37.9193 7.43714 30.9963 7.43714 24.0734C7.43714 21.2864 6.19152 14.8918 7.5643 12.375C9.40662 8.9974 20.143 8.98415 23.4588 8.98415C34.0952 8.98415 44.9567 7.02477 55.6717 8.68745C67.3823 10.5046 78.9388 12.9382 90.7245 14.3247C103.077 15.778 115.225 15.8506 127.642 15.8506C143.964 15.8506 160.349 16.6135 176.724 16.6135C198.398 16.6135 220.071 16.6135 241.744 16.6135C258.11 16.6135 273.976 15.9424 290.063 12.7988C300.766 10.7075 311.326 8.22121 322.234 8.22121C329.861 8.22121 337.191 6.85026 344.698 5.55093C353.073 4.10131 360.926 3.64359 369.409 3.64359C382.672 3.64359 395.906 4.18057 409.039 2.1601C411.15 1.83538 413.468 2.11771 415.609 2.11771" stroke="white" stroke-width="2.07391" stroke-linecap="round"/>
</svg>
