<svg width="416" height="285" viewBox="0 0 416 285" fill="none" xmlns="http://www.w3.org/2000/svg">
<path d="M406.27 1.96094C406.27 28.8235 403.88 57.4195 407.627 84.0191C408.844 92.6657 410.066 101.296 411.229 109.959C412.504 119.446 414.663 128.502 414.663 138.103C414.663 149.83 414.663 161.556 414.663 173.283C414.663 180.121 414.663 186.959 414.663 193.797C414.663 202.09 413.431 210.089 413.094 218.338C412.689 228.278 410.589 240.713 406.609 249.916C405.408 252.693 405.626 256.129 404.32 259.113C402.799 262.591 402.054 266.478 400.93 270.133C399.884 273.531 396.753 274.643 393.555 275.135C387.807 276.019 382.123 276.664 376.346 277.381C368.435 278.364 360.872 280.931 352.865 281.154C347.646 281.299 343.241 282.797 338.199 283.358C331.882 284.06 325.224 283.485 318.871 283.485C309.038 283.485 299.205 283.485 289.371 283.485C267.8 283.485 245.178 285.412 223.886 281.154C205.216 277.42 186.341 276.158 167.556 273.567C152.55 271.497 136.827 272.804 121.695 272.804C109.807 272.804 97.963 272.041 86.0908 272.041C67.7771 272.041 48.9083 271.278 30.8626 271.278C25.5413 271.278 17.8113 272.733 13.1879 270.091C11.0789 268.886 9.19555 270.355 7.25395 268.608C2.89473 264.684 2.82366 256.729 2.29486 251.441C0.641322 234.906 1.68496 217.543 2.71871 201.003C3.13172 194.395 3.4441 187.752 4.62606 181.251C6.17347 172.74 4.96514 163.029 4.96514 154.379C4.96514 142.2 4.96514 130.021 4.96514 117.843C4.96514 95.6149 5.72808 73.3301 5.72808 51.1704C5.72808 43.0209 8.77983 35.3078 8.77983 27.1379C8.77983 25.0894 7.78989 16.132 9.96662 15.7362C16.7961 14.4945 24.4687 16.3932 31.3289 16.4567C39.832 16.5355 48.3428 16.3049 56.8449 16.4567C59.5384 16.5048 62.0133 17.3356 64.6014 17.9826C68.581 18.9775 72.6121 18.7456 76.6813 18.7456C88.4361 18.7456 100.191 18.7456 111.946 18.7456C134.029 18.7456 156.112 18.7456 178.194 18.7456C192.819 18.7456 206.961 13.9424 221.47 13.405C231.63 13.0287 242.504 10.8955 252.581 9.50554C258.738 8.65631 264.116 8.06444 270.467 8.06444C279.495 8.06444 288.524 8.06444 297.552 8.06444C335.111 8.06444 372.576 7.3015 410.085 7.3015" stroke="white" stroke-width="2.07391" stroke-linecap="round"/>
</svg>
