<svg width="427" height="277" viewBox="0 0 427 277" fill="none" xmlns="http://www.w3.org/2000/svg">
<path d="M423.476 1.53906C423.394 14.0613 422.713 26.5729 422.713 39.0925C422.713 46.8051 421.187 54.272 421.187 61.9807C421.187 80.8704 421.187 99.7602 421.187 118.65C421.187 161.247 421.187 203.845 421.187 246.442C421.187 254.799 419.313 265.703 421.568 273.823C422.291 276.427 418.885 275.538 417.033 275.264C411.966 274.513 406.937 274.671 401.817 274.671C345.825 274.671 289.834 274.671 233.843 274.671C199.144 274.671 164.444 274.671 129.745 274.671C123.81 274.671 118.066 273.24 112.155 272.763C105.932 272.261 99.7009 272.382 93.4627 272.382C83.3185 272.382 73.1742 272.382 63.03 272.382C49.5797 272.382 36.1294 272.382 22.6791 272.382C19.4159 272.382 11.8645 272.531 10.4297 268.864C8.87667 264.895 9.37106 258.575 9.24291 254.41C8.99029 246.2 9.20053 237.956 9.20053 229.742C9.20053 218.826 7.7198 208.858 6.14878 198.123C4.22514 184.978 1.57115 172.043 1.57115 158.704C1.57115 144.717 1.57115 130.73 1.57115 116.743C1.57115 106.949 0.853068 96.8367 1.7407 87.0728C2.17126 82.3366 2.47049 77.4407 3.52088 72.7889C4.43313 68.749 4.04322 64.5865 4.96199 60.6243C7.15998 51.1455 9.20053 40.7105 9.20053 30.9122C9.20053 28.2551 10.968 21.4028 13.9477 20.782C23.3106 18.8314 34.7837 20.6125 44.2533 20.6125C59.2153 20.6125 74.1774 20.6125 89.1394 20.6125C128.77 20.6125 168.4 20.6125 208.03 20.6125C227.683 20.6125 247.336 20.6125 266.989 20.6125C282.2 20.6125 296.717 18.9451 311.748 16.9674C322.414 15.5639 332.845 12.9831 343.706 12.9831C355.333 12.9831 366.881 12.2202 378.505 12.2202C393.185 12.2202 410.796 14.6665 425.001 9.93137" stroke="white" stroke-width="2.07391" stroke-linecap="round"/>
</svg>
