<svg width="433" height="286" viewBox="0 0 433 286" fill="none" xmlns="http://www.w3.org/2000/svg">
<path d="M429.476 7.53906C429.394 20.0613 428.713 32.5729 428.713 45.0925C428.713 52.8051 427.187 60.272 427.187 67.9807C427.187 86.8704 427.187 105.76 427.187 124.65C427.187 167.247 427.187 209.845 427.187 252.442C427.187 260.799 425.313 271.703 427.568 279.823C428.291 282.427 424.885 281.538 423.033 281.264C417.966 280.513 412.937 280.671 407.817 280.671C351.825 280.671 295.834 280.671 239.843 280.671C205.144 280.671 170.444 280.671 135.745 280.671C129.81 280.671 124.066 279.24 118.155 278.763C111.932 278.261 105.701 278.382 99.4627 278.382C89.3185 278.382 79.1742 278.382 69.03 278.382C55.5797 278.382 42.1294 278.382 28.6791 278.382C25.4159 278.382 17.8645 278.531 16.4297 274.864C14.8767 270.895 15.3711 264.575 15.2429 260.41C14.9903 252.2 15.2005 243.956 15.2005 235.742C15.2005 224.826 13.7198 214.858 12.1488 204.123C10.2251 190.978 7.57115 178.043 7.57115 164.704C7.57115 150.717 7.57115 136.73 7.57115 122.743C7.57115 112.949 6.85307 102.837 7.7407 93.0728C8.17126 88.3366 8.47049 83.4407 9.52088 78.7889C10.4331 74.749 10.0432 70.5865 10.962 66.6243C13.16 57.1455 15.2005 46.7105 15.2005 36.9122C15.2005 34.2551 16.968 27.4028 19.9477 26.782C29.3106 24.8314 40.7837 26.6125 50.2533 26.6125C65.2153 26.6125 80.1774 26.6125 95.1394 26.6125C134.77 26.6125 174.4 26.6125 214.03 26.6125C233.683 26.6125 253.336 26.6125 272.989 26.6125C288.2 26.6125 302.717 24.9451 317.748 22.9674C328.414 21.5639 338.845 18.9831 349.706 18.9831C361.333 18.9831 372.881 18.2202 384.505 18.2202C399.185 18.2202 416.796 20.6665 431.001 15.9314" stroke="white" stroke-width="2.07391" stroke-linecap="round"/>
<path d="M416.506 265.409C400.632 265.596 384.784 266.172 368.907 266.172C348.559 266.172 328.692 269.987 308.338 269.987C294.109 269.987 279.909 269.587 265.868 272.276C249.096 275.487 233.434 276.091 216.362 276.091C183.589 276.091 150.831 276.853 118.07 276.853C105.169 276.853 92.6835 276.649 79.8807 275.497C74.1178 274.978 68.2436 275.881 62.5027 275.243C58.3021 274.776 54.1398 273.578 49.9143 273.081C46.6561 272.698 43.7005 270.951 40.5471 270.75C37.7156 270.569 34.8243 270.75 31.9852 270.75C28.9579 270.75 28.3756 269.411 25.8817 268.164C24.1125 267.28 19.3195 268.844 18.6762 266.639C17.6605 263.156 18.2524 258.897 18.2524 255.322C18.2524 249.642 18.2524 243.962 18.2524 238.283C18.2524 225.624 18.2524 212.965 18.2524 200.305C18.2524 184.51 18.2524 168.714 18.2524 152.919C18.2524 144.498 18.2524 136.077 18.2524 127.657C18.2524 118.944 19.1122 109.724 17.4894 101.124C15.5935 91.075 16.7265 80.1623 16.7265 69.9279C16.7265 61.5032 16.0926 52.8424 17.3199 44.4967C18.054 39.5049 20.1207 32.2369 22.4909 27.712C25.1093 22.7132 31.5718 23.6175 36.9019 23.5583C79.5452 23.0845 122.218 23.5583 164.863 23.5583C193.68 23.5583 222.958 25.3066 251.33 19.7436C257.931 18.4493 264.849 18.5595 271.548 18.0482C282.202 17.2349 292.814 15.6675 303.421 14.403C317.804 12.6886 331.912 13.4895 346.315 12.8348C365.121 11.98 383.928 12.1142 402.773 12.1142C405.969 12.1142 409.261 11.8806 412.437 12.2838C415.862 12.7187 424.366 11.5663 427.017 13.8096C428.069 14.6999 427.187 21.1384 427.187 22.3715C427.187 27.3447 427.187 32.3179 427.187 37.2911C427.187 85.229 427.187 133.167 427.187 181.105C427.187 203.443 424.858 226.041 423.33 248.201C422.787 256.074 421.083 263.593 421.083 271.513" stroke="white" stroke-width="2.07391" stroke-linecap="round"/>
<path d="M420.32 2.19609C365.724 2.19609 310.936 0.125069 257.093 9.444C239.82 12.4337 223.026 12.1143 205.51 12.1143C185.957 12.1143 166.403 12.1143 146.849 12.1143C128.637 12.1143 110.426 12.1143 92.2142 12.1143C82.6742 12.1143 73.9124 12.8731 64.4942 14.0216C59.2448 14.6618 53.607 15.166 48.3453 15.166C41.1681 15.166 33.9908 15.166 26.8136 15.166C24.2568 15.166 21.8695 15.1311 19.3961 15.929C17.9619 16.3916 14.2064 15.9609 13.0807 16.8614C10.0348 19.2981 9.21852 22.9499 7.90966 26.9492C5.1004 35.533 6.04709 44.714 3.71351 53.2705C1.13778 62.7148 2.23002 72.9833 2.23002 82.7284C2.23002 101.401 2.51562 119.813 3.71351 138.38C4.80544 155.305 5.28177 172.072 5.28177 189.116C5.28177 196.937 5.11178 204.778 5.28177 212.597C5.42079 218.993 7.9565 226.174 8.92691 232.603C9.55263 236.749 10.6223 241.756 10.6223 245.912C10.6223 250.289 11.1567 255.887 12.4873 260.069C13.4641 263.139 11.5938 268.585 14.0979 271.089C15.5538 272.545 21.5138 271.513 23.338 271.513C31.5015 271.513 39.7704 271.103 47.9215 271.555C66.5848 272.592 85.3762 272.276 104.125 272.276C125.084 272.276 146.996 273.092 167.66 269.648C173.042 268.751 179.38 270.514 184.572 268.885C190.925 266.892 196.382 267.509 202.883 266.766C214.661 265.42 228.12 265.203 239.927 266.766C247.555 267.775 256.634 266.81 263.875 269.224C269.63 271.142 276.891 270.75 282.949 270.75C291.714 270.75 300.266 271.593 308.973 272.318C319.969 273.235 330.955 273.039 342.034 273.039C357.021 273.039 372.101 272.846 386.92 272.276C388.29 272.223 390.805 271.633 392.049 271.089C394.333 270.09 396.739 270.302 398.957 269.224C402.839 267.339 407.236 267.44 411.164 265.579C415.135 263.698 418.093 259.447 419.853 255.534C421.517 251.837 423.371 245.961 423.371 241.801C423.371 229.959 423.437 218.46 420.404 207.087C419.287 202.895 420.32 196.984 420.32 192.676C420.32 187.053 420.32 181.43 420.32 175.807C420.32 170.834 420.32 165.86 420.32 160.887C420.32 154.534 421.846 148.488 421.846 142.237C421.846 124.222 427.949 107.099 427.949 89.171C427.949 80.3265 427.949 71.4821 427.949 62.6377C427.949 55.7782 424.512 48.7587 422.778 42.2079C419.382 29.3794 418.031 15.6113 418.031 2.19609" stroke="white" stroke-width="2.07391" stroke-linecap="round"/>
<path d="M417.27 2.96094C417.27 29.8235 414.88 58.4195 418.627 85.0191C419.844 93.6657 421.066 102.296 422.229 110.959C423.504 120.446 425.663 129.502 425.663 139.103C425.663 150.83 425.663 162.556 425.663 174.283C425.663 181.121 425.663 187.959 425.663 194.797C425.663 203.09 424.431 211.089 424.094 219.338C423.689 229.278 421.589 241.713 417.609 250.916C416.408 253.693 416.626 257.129 415.32 260.113C413.799 263.591 413.054 267.478 411.93 271.133C410.884 274.531 407.753 275.643 404.555 276.135C398.807 277.019 393.123 277.664 387.346 278.381C379.435 279.364 371.872 281.931 363.865 282.154C358.646 282.299 354.241 283.797 349.199 284.358C342.882 285.06 336.224 284.485 329.871 284.485C320.038 284.485 310.205 284.485 300.371 284.485C278.8 284.485 256.178 286.412 234.886 282.154C216.216 278.42 197.341 277.158 178.556 274.567C163.55 272.497 147.827 273.804 132.695 273.804C120.807 273.804 108.963 273.041 97.0908 273.041C78.7771 273.041 59.9083 272.278 41.8626 272.278C36.5413 272.278 28.8113 273.733 24.1879 271.091C22.0789 269.886 20.1956 271.355 18.254 269.608C13.8947 265.684 13.8237 257.729 13.2949 252.441C11.6413 235.906 12.685 218.543 13.7187 202.003C14.1317 195.395 14.4441 188.752 15.6261 182.251C17.1735 173.74 15.9651 164.029 15.9651 155.379C15.9651 143.2 15.9651 131.021 15.9651 118.843C15.9651 96.6149 16.7281 74.3301 16.7281 52.1704C16.7281 44.0209 19.7798 36.3078 19.7798 28.1379C19.7798 26.0894 18.7899 17.132 20.9666 16.7362C27.7961 15.4945 35.4687 17.3932 42.3289 17.4567C50.832 17.5355 59.3428 17.3049 67.8449 17.4567C70.5384 17.5048 73.0133 18.3356 75.6014 18.9826C79.581 19.9775 83.6121 19.7456 87.6813 19.7456C99.4361 19.7456 111.191 19.7456 122.946 19.7456C145.029 19.7456 167.112 19.7456 189.194 19.7456C203.819 19.7456 217.961 14.9424 232.47 14.405C242.63 14.0287 253.504 11.8955 263.581 10.5055C269.738 9.65631 275.116 9.06444 281.467 9.06444C290.495 9.06444 299.524 9.06444 308.552 9.06444C346.111 9.06444 383.576 8.3015 421.085 8.3015" stroke="white" stroke-width="2.07391" stroke-linecap="round"/>
<path d="M424.135 14.4065C424.135 24.8063 422.609 35.1776 422.609 45.687C422.609 56.5659 422.609 67.4448 422.609 78.3237C422.609 113.871 422.609 149.418 422.609 184.965C422.609 210.312 422.609 235.658 422.609 261.005C422.609 262.78 424.132 276.422 422.185 277.535C421.018 278.202 417.728 277.62 416.463 277.62C408.282 277.62 400.102 277.62 391.922 277.62C368.846 277.62 345.975 279.146 322.918 279.146C301.611 279.146 279.659 277.598 258.408 279.315C236.444 281.09 213.944 279.909 191.905 279.909C179.995 279.909 168.084 279.909 156.174 279.909C144.849 279.909 132.973 280.46 121.842 278.044C100.662 273.446 78.9277 271.532 57.5431 268.083C47.2992 266.431 36.5757 268.526 26.4746 266.769C21.869 265.968 17.2364 266.176 12.5722 266.176C8.82302 266.176 8.33365 266.616 8.33365 262.615C8.33365 254.754 7.8292 246.715 8.50319 238.88C8.97862 233.353 9.85952 227.897 9.85952 222.349C9.85952 217.828 10.6225 213.4 10.6225 208.913C10.6225 203.081 12.7345 197.656 12.9113 192.001C13.3574 177.726 14.4371 163.72 14.4371 149.446C14.4371 117.912 14.4371 86.3769 14.4371 54.8422C14.4371 47.9193 14.4371 40.9963 14.4371 34.0734C14.4371 31.2864 13.1915 24.8918 14.5643 22.375C16.4066 18.9974 27.143 18.9842 30.4588 18.9842C41.0952 18.9842 51.9567 17.0248 62.6717 18.6875C74.3823 20.5046 85.9388 22.9382 97.7245 24.3247C110.077 25.778 122.225 25.8506 134.642 25.8506C150.964 25.8506 167.349 26.6135 183.724 26.6135C205.398 26.6135 227.071 26.6135 248.744 26.6135C265.11 26.6135 280.976 25.9424 297.063 22.7988C307.766 20.7075 318.326 18.2212 329.234 18.2212C336.861 18.2212 344.191 16.8503 351.698 15.5509C360.073 14.1013 367.926 13.6436 376.409 13.6436C389.672 13.6436 402.906 14.1806 416.039 12.1601C418.15 11.8354 420.468 12.1177 422.609 12.1177" stroke="white" stroke-width="2.07391" stroke-linecap="round"/>
</svg>
