<svg width="518" height="359" viewBox="0 0 518 359" fill="none" xmlns="http://www.w3.org/2000/svg">
<path d="M10.2454 39.1982C10.2454 105.251 7.13831 172.336 11.9248 238.283C13.2424 256.436 16.6251 274.097 19.5584 292.023C20.4574 297.517 21.4909 303.007 22.3065 308.512C22.8682 312.303 21.4938 317.32 22.9172 320.878C24.8306 325.662 24.1832 331.502 26.4286 335.993C28.718 340.572 35.0731 338.825 39.5584 339.046C67.1807 340.41 94.8104 340.115 122.459 340.115C141.056 340.115 159.756 340.67 178.337 339.81C205.212 338.565 231.419 333.349 258.032 330.039C290.196 326.037 323.317 330.497 355.59 330.497C383.367 330.497 410.168 326.747 437.575 323.321C453.038 321.388 468.482 320.344 483.987 318.436C489.008 317.818 506.277 321.785 506.277 314.771C506.277 279.52 503.684 243.309 506.583 208.206C508.657 183.077 511.773 158.571 511.773 133.244C511.773 116.342 512.945 99.5453 513.147 82.7098C513.428 59.4098 513.147 36.0884 513.147 12.7859C513.147 5.08517 482.984 11.7172 476.811 11.7172C455.597 11.7172 432.441 9.16217 411.468 12.3279C390.213 15.5362 368.713 14.4653 347.193 14.4653C329.653 14.4653 312.246 15.8394 294.674 15.8394C250.704 15.8394 206.734 15.8394 162.765 15.8394C123.935 15.8394 85.1056 15.8394 46.276 15.8394C35.7416 15.8394 25.2072 15.8394 14.6729 15.8394C7.38738 15.8394 10.2454 24.9836 10.2454 30.6486C10.2454 35.6506 10.0611 40.0193 11.6194 44.6944" stroke="white" stroke-width="2.5012" stroke-linecap="round"/>
<path d="M25.3611 28.2092C25.3611 45.004 26.5841 62.4444 23.3763 79.0491C20.391 94.5025 21.471 110.25 19.1778 125.843C17.9867 133.943 18.4908 142.258 18.4908 150.423C18.4908 158.836 16.1081 166.764 15.6664 175.156C14.8809 190.081 14.3687 204.834 14.3687 219.813C14.3687 244.552 11.6206 269.292 11.6206 294.164C11.6206 303.528 11.6206 312.892 11.6206 322.256C11.6206 329.005 9.43597 339.304 12.9946 345.309C15.8327 350.099 20.1339 348.363 25.6664 348.363C48.9316 348.363 72.8113 349.825 95.8956 346.378C111.2 344.093 126.36 340.919 141.697 338.744C161.781 335.897 181.666 334.45 201.85 332.485C227.294 330.008 253.178 328.395 278.186 323.706C297.189 320.143 317.67 318.134 336.965 318.134C352.318 318.134 367.141 314.012 382.614 314.012C397.604 314.012 412.923 314.932 427.881 313.935C434.315 313.506 440.65 311.72 447.118 311.34C455.382 310.854 462.729 307.275 471.011 307.141C480.096 306.995 488.474 303.019 497.347 303.019C505.653 303.019 508.677 279.615 509.713 274.088C511.589 264.085 515.335 254.046 515.82 243.859C516.287 234.051 515.897 224.135 515.897 214.317C515.897 180.449 515.897 146.581 515.897 112.713C515.897 83.8328 515.897 54.9523 515.897 26.0718C515.897 17.8669 518.122 14.4688 508.721 14.4688C483.427 14.4688 456.775 16.941 431.774 13.0947C409.289 9.63548 385.398 11.7207 362.69 11.7207C324.802 11.7207 286.914 11.7207 249.026 11.7207C201.265 11.7207 153.504 11.7207 105.743 11.7207C74.8268 11.7207 43.9107 11.7207 12.9946 11.7207" stroke="white" stroke-width="2.5012" stroke-linecap="round"/>
<path d="M17.1133 19.964C17.1133 94.5189 17.1133 169.074 17.1133 243.629C17.1133 267.293 17.1133 290.957 17.1133 314.621C17.1133 323.298 17.1133 331.975 17.1133 340.652C17.1133 346.604 18.1301 348.362 24.2889 348.362C40.9713 348.362 56.8917 346.577 73.4493 344.85C95.6021 342.54 118.041 344.038 140.243 342.713C155.053 341.829 169.277 339.011 184.213 338.667C202.052 338.257 219.503 334.332 237.267 332.942C258.385 331.289 279.609 332.979 300.702 331.11C310.8 330.215 321.069 328.679 331.084 327.064C338.156 325.923 346.185 327.87 352.992 325.766C364.958 322.068 376.397 322.315 388.946 320.881C405.737 318.962 422.264 315.196 438.946 312.942C447.845 311.739 457.097 312.488 465.893 310.576C474.336 308.74 484.194 307.14 492.84 307.14C506.177 307.14 505.586 302.667 509.786 290.346C517.316 268.258 515.893 244.976 515.893 221.949C515.893 181.949 515.893 141.949 515.893 101.949C515.893 71.9744 515.893 41.9997 515.893 12.0251C515.893 3.53392 516.989 1.14532 506.733 2.25407C494.218 3.60709 481.757 7.91395 469.176 9.73501C456.104 11.627 443.073 14.0933 429.939 15.5366C408.179 17.9277 386.553 21.2187 364.748 23.3992C336.591 26.2148 307.389 24.0862 279.099 24.0862C238.488 24.0862 197.877 24.0862 157.266 24.0862C113.297 24.0862 69.3272 24.0862 25.3576 24.0862" stroke="white" stroke-width="2.5012" stroke-linecap="round"/>
<path d="M15.7426 28.2074C9.82079 56.3361 11.6205 86.0293 11.6205 114.696C11.6205 141.312 11.6205 167.928 11.6205 194.544C11.6205 229.124 11.6205 263.704 11.6205 298.284C11.6205 310.569 13.1621 323.199 15.819 335.155C17.0358 340.631 17.9453 344.239 24.0633 344.239C46.3835 344.239 67.6341 341.995 89.865 340.193C114.232 338.217 138.643 338.743 163.071 338.743C192.476 338.743 221.371 337.95 250.705 336.3C286.617 334.28 323.526 339.659 359.255 335.689C388 332.495 416.189 327.093 444.751 322.559C461.487 319.903 476.936 315.384 493.912 315.384C502.073 315.384 505.075 284.581 506.278 278.284C509.7 260.371 509.767 241.639 513.912 224.086C517.113 210.529 517.369 193.174 515.21 179.353C513.717 169.798 509.926 161.044 508.416 151.337C506.921 141.729 505.765 132.081 504.217 122.482C501.201 103.78 499.408 85.0886 499.408 65.9937C499.408 50.472 499.408 34.9504 499.408 19.4287C499.408 9.2587 500.77 6.22471 488.874 8.35997C465.537 12.5486 442.378 16.534 418.797 19.276C407.076 20.639 395.746 20.3301 384.141 23.0165C371.883 25.8539 358.122 27.9822 345.514 28.2074C325.019 28.5733 304.486 28.2074 283.988 28.2074C247.143 28.2074 210.298 28.2074 173.453 28.2074C120.362 28.2074 67.4538 29.5814 14.3686 29.5814" stroke="white" stroke-width="2.5012" stroke-linecap="round"/>
<path d="M21.2367 19.9644C18.2989 40.8959 13.2912 62.8686 12.9924 84.0867C12.7835 98.9149 12.9924 113.761 12.9924 128.591C12.9924 168.1 11.6183 207.446 11.6183 246.988C11.6183 283.069 11.6183 319.151 11.6183 355.232C11.6183 362.388 50.6369 347.758 56.504 346.377C97.9904 336.616 140.78 335.525 182.84 328.515C210.583 323.891 237.268 320.881 265.359 320.881C291.365 320.881 317.37 320.881 343.375 320.881C384.087 320.881 424.8 320.881 465.513 320.881C476.145 320.881 485.727 321.391 495.818 318.286C498.517 317.455 500.717 319.197 502.154 315.843C504.706 309.887 506.106 302.607 506.276 296.148C507.175 262 506.276 227.715 506.276 193.553C506.276 149.99 506.276 106.428 506.276 62.8653C506.276 50.1935 506.276 37.5217 506.276 24.8499C506.276 21.4975 508.017 11.8139 503.986 11.7201C487.263 11.3312 470.734 13.0941 454.062 13.0941C439.507 13.0941 425.582 17.9836 411.238 18.6667C385.096 19.9115 359.378 21.3384 333.146 21.3384C315.925 21.3384 299.474 25.4606 282.306 25.4606C258.031 25.4606 233.756 25.4606 209.481 25.4606C172.993 25.4606 136.504 25.4606 100.016 25.4606C83.3997 25.4606 66.7839 25.4606 50.1681 25.4606C34.0098 25.4606 17.9882 22.7125 2 22.7125" stroke="white" stroke-width="2.5012" stroke-linecap="round"/>
<path d="M6.125 26.832C6.125 72.7416 10.2471 118.362 10.2471 164.237C10.2471 193.25 18.3385 221.942 19.9418 250.802C20.6232 263.067 22.6136 274.722 22.6136 287.214C22.6136 298.156 22.6136 309.097 22.6136 320.039C22.6136 325.103 22.6136 330.166 22.6136 335.23C22.6136 338.561 24.7957 342.215 25.3617 345.612C26.1204 350.164 63.8628 345.794 66.2778 345.612C89.187 343.877 111.691 335.449 134.522 334.619C145.199 334.231 155.519 331.009 166.202 330.573C178.661 330.065 191.213 330.497 203.683 330.497C229.891 330.497 256.1 330.497 282.309 330.497C299.028 330.497 315.575 331.248 332.08 328.36C344.068 326.262 355.769 327.121 367.805 326.069C381.813 324.845 395.735 322.453 409.714 320.955C421.14 319.731 432.381 317.068 443.76 315.382C466.975 311.943 490.017 305.764 513.149 305.764" stroke="white" stroke-width="2.5012" stroke-linecap="round"/>
<path d="M509.029 300.273C509.029 248.365 509.029 196.456 509.029 144.547C509.029 120.339 505.856 92.533 511.472 68.8221C515.788 50.5992 515.899 31.9004 515.899 13.0967C515.899 11.587 516.848 5.22735 514.907 4.92875C508.868 3.99964 502.236 7.49352 496.357 8.66922C480.443 11.8521 463.695 16.6965 447.502 17.2189C399.88 18.755 351.944 18.5929 304.143 18.5929C293.634 18.5929 283.125 18.5929 272.616 18.5929C255.009 18.5929 237.775 21.341 220.173 21.341C198.392 21.341 176.611 21.341 154.829 21.341C125.618 21.341 96.4069 21.341 67.1957 21.341C57.9546 21.341 43.6646 23.7454 34.9818 20.2723C28.6926 17.7566 20.8179 20.4423 14.3711 17.2189" stroke="white" stroke-width="2.5012" stroke-linecap="round"/>
<path d="M504.903 18.5898C500.927 67.037 502.155 115.724 502.155 164.315C502.155 180.275 500.071 197.88 502.46 213.705C503.716 222.027 505.983 230.838 506.277 239.201C506.51 245.84 509.025 251.638 509.025 258.285C509.025 278.746 519.697 294.192 509.788 314.01C505.525 322.537 492.94 323.782 483.529 326.072C467.911 329.87 451.79 329.493 435.513 330.423C413.47 331.682 391.503 330.621 369.635 333.934C346.591 337.426 323.517 338.487 300.169 338.743C271.943 339.054 243.608 340.117 215.284 340.117C178.926 340.117 141.359 337.334 105.36 342.56C79.1722 346.362 51.8349 344.24 25.3594 344.24" stroke="white" stroke-width="2.5012" stroke-linecap="round"/>
<path d="M507.652 17.2148C503.219 113.274 504.904 209.58 504.904 305.765C504.904 312.016 503.217 326.559 495.973 327.674C488.498 328.824 480.087 328.814 472.538 329.124C465.793 329.401 459.911 331.872 452.996 331.872C422.207 331.872 391.418 331.872 360.629 331.872" stroke="white" stroke-width="2.5012" stroke-linecap="round"/>
</svg>
