<svg width="553" height="366" viewBox="0 0 553 366" fill="none" xmlns="http://www.w3.org/2000/svg">
<path d="M549.344 9.09375C549.239 25.1274 548.367 41.1474 548.367 57.1777C548.367 67.0529 546.413 76.6137 546.413 86.4839C546.413 110.671 546.413 134.857 546.413 159.044C546.413 213.586 546.413 268.128 546.413 322.67C546.413 333.371 544.014 347.332 546.902 357.729C547.828 361.063 543.466 359.926 541.095 359.575C534.607 358.613 528.168 358.815 521.612 358.815C449.92 358.815 378.228 358.815 306.536 358.815C262.107 358.815 217.677 358.815 173.247 358.815C165.648 358.815 158.294 356.983 150.725 356.373C142.757 355.73 134.779 355.884 126.792 355.884C113.803 355.884 100.814 355.884 87.8251 355.884C70.6032 355.884 53.3812 355.884 36.1593 355.884C31.9811 355.884 22.3122 356.075 20.475 351.38C18.4865 346.298 19.1195 338.206 18.9555 332.873C18.632 322.361 18.9012 311.805 18.9012 301.288C18.9012 287.311 17.0052 274.547 14.9937 260.802C12.5306 243.971 9.13244 227.408 9.13244 210.33C9.13244 192.42 9.13244 174.511 9.13244 156.602C9.13244 144.062 8.21299 131.114 9.34952 118.612C9.90082 112.548 10.284 106.279 11.6289 100.323C12.797 95.1501 12.2977 89.8204 13.4741 84.7472C16.2884 72.6104 18.9012 59.2493 18.9012 46.7034C18.9012 43.3013 21.1643 34.5275 24.9795 33.7327C36.9679 31.2351 51.6582 33.5156 63.7831 33.5156C82.9407 33.5156 102.098 33.5156 121.256 33.5156C171.999 33.5156 222.742 33.5156 273.486 33.5156C298.649 33.5156 323.813 33.5156 348.976 33.5156C368.453 33.5156 387.04 31.3807 406.286 28.8483C419.944 27.0513 433.3 23.7469 447.206 23.7469C462.093 23.7469 476.88 22.77 491.763 22.77C510.56 22.77 533.109 25.9022 551.298 19.8394" stroke="white" stroke-width="2.65546" stroke-linecap="round"/>
<path d="M532.738 339.272C512.414 339.511 492.121 340.249 471.792 340.249C445.738 340.249 420.3 345.133 394.239 345.133C376.02 345.133 357.838 344.621 339.86 348.064C318.385 352.176 298.33 352.948 276.471 352.948C234.509 352.948 192.564 353.925 150.617 353.925C134.098 353.925 118.112 353.664 101.719 352.188C94.3404 351.524 86.8189 352.679 79.4683 351.863C74.0897 351.265 68.7603 349.731 63.3499 349.095C59.178 348.604 55.3937 346.368 51.356 346.11C47.7306 345.878 44.0285 346.11 40.3933 346.11C36.5171 346.11 35.7715 344.396 32.5783 342.799C30.3129 341.667 24.176 343.67 23.3523 340.846C22.0517 336.387 22.8096 330.933 22.8096 326.355C22.8096 319.083 22.8096 311.811 22.8096 304.538C22.8096 288.33 22.8096 272.121 22.8096 255.912C22.8096 235.687 22.8096 215.462 22.8096 195.237C22.8096 184.455 22.8096 173.673 22.8096 162.892C22.8096 151.735 23.9105 139.931 21.8327 128.918C19.4051 116.052 20.8558 102.079 20.8558 88.9749C20.8558 78.1878 20.0441 67.0984 21.6156 56.4124C22.5555 50.0209 25.2019 40.7148 28.2367 34.9212C31.5893 28.5206 39.8639 29.6784 46.6887 29.6026C101.29 28.9959 155.928 29.6026 210.532 29.6026C247.429 29.6026 284.918 31.8412 321.245 24.7182C329.696 23.061 338.554 23.2022 347.132 22.5474C360.774 21.506 374.362 19.4992 387.943 17.8801C406.359 15.6849 424.423 16.7104 442.866 15.8721C466.944 14.7776 491.026 14.9495 515.154 14.9495C519.246 14.9495 523.462 14.6503 527.528 15.1666C531.913 15.7235 542.802 14.2479 546.197 17.1203C547.544 18.2603 546.414 26.5041 546.414 28.083C546.414 34.4508 546.414 40.8186 546.414 47.1864C546.414 108.567 546.414 169.947 546.414 231.327C546.414 259.93 543.432 288.864 541.476 317.238C540.78 327.319 538.599 336.946 538.599 347.087" stroke="white" stroke-width="2.65546" stroke-linecap="round"/>
<path d="M537.622 2.25108C467.717 2.25108 397.566 -0.400685 328.625 11.5314C306.507 15.3595 285.005 14.9504 262.577 14.9504C237.54 14.9504 212.503 14.9504 187.466 14.9504C164.148 14.9504 140.83 14.9504 117.511 14.9504C105.296 14.9504 94.0776 15.922 82.0183 17.3926C75.297 18.2123 68.0783 18.8579 61.3412 18.8579C52.1513 18.8579 42.9614 18.8579 33.7716 18.8579C30.4978 18.8579 27.4411 18.8132 24.2742 19.8348C22.4378 20.4272 17.6292 19.8757 16.1878 21.0288C12.2879 24.1488 11.2427 28.8245 9.5668 33.9452C5.96979 44.9361 7.18194 56.6916 4.19399 67.6474C0.896005 79.74 2.29452 92.8878 2.29452 105.366C2.29452 129.274 2.6602 152.849 4.19399 176.623C5.59212 198.294 6.20201 219.762 6.20201 241.585C6.20201 251.6 5.98436 261.639 6.20201 271.651C6.38003 279.84 9.62678 289.035 10.8693 297.267C11.6705 302.575 13.0401 308.986 13.0401 314.308C13.0401 319.913 13.7244 327.08 15.428 332.435C16.6788 336.366 14.284 343.339 17.4903 346.545C19.3545 348.409 26.9857 347.088 29.3214 347.088C39.7741 347.088 50.3617 346.562 60.7984 347.142C84.6951 348.47 108.756 348.065 132.762 348.065C159.598 348.065 187.654 349.11 214.113 344.7C221.005 343.551 229.12 345.809 235.768 343.723C243.902 341.171 250.889 341.961 259.212 341.009C274.293 339.286 291.527 339.008 306.645 341.009C316.412 342.302 328.037 341.067 337.308 344.157C344.677 346.613 353.973 346.111 361.73 346.111C372.953 346.111 383.903 347.19 395.052 348.119C409.131 349.292 423.198 349.041 437.384 349.041C456.573 349.041 475.882 348.794 494.856 348.065C496.611 347.997 499.83 347.242 501.423 346.545C504.349 345.265 507.428 345.537 510.269 344.157C515.239 341.743 520.869 341.873 525.899 339.49C530.984 337.081 534.77 331.638 537.025 326.628C539.155 321.895 541.529 314.37 541.529 309.044C541.529 293.882 541.614 279.159 537.73 264.596C536.299 259.228 537.622 251.659 537.622 246.144C537.622 238.944 537.622 231.744 537.622 224.544C537.622 218.176 537.622 211.809 537.622 205.441C537.622 197.307 539.575 189.565 539.575 181.562C539.575 158.495 547.39 136.57 547.39 113.615C547.39 102.29 547.39 90.9657 547.39 79.6412C547.39 70.8583 542.99 61.8704 540.769 53.4827C536.421 37.0569 534.691 19.428 534.691 2.25108" stroke="white" stroke-width="2.65546" stroke-linecap="round"/>
<path d="M533.718 3.23047C533.718 37.6257 530.658 74.2403 535.455 108.299C537.014 119.37 538.578 130.421 540.068 141.512C541.7 153.66 544.464 165.255 544.464 177.548C544.464 192.563 544.464 207.578 544.464 222.593C544.464 231.349 544.464 240.104 544.464 248.86C544.464 259.478 542.887 269.72 542.456 280.283C541.936 293.009 539.248 308.932 534.152 320.715C532.615 324.271 532.894 328.67 531.222 332.491C529.274 336.944 528.32 341.921 526.88 346.602C525.542 350.952 521.532 352.376 517.437 353.006C510.077 354.138 502.8 354.964 495.403 355.882C485.274 357.14 475.59 360.427 465.337 360.712C458.655 360.898 453.015 362.817 446.559 363.534C438.471 364.433 429.945 363.697 421.812 363.697C409.221 363.697 396.63 363.697 384.039 363.697C356.42 363.697 327.454 366.165 300.191 360.712C276.286 355.931 252.119 354.315 228.065 350.998C208.851 348.348 188.719 350.021 169.344 350.021C154.123 350.021 138.958 349.044 123.757 349.044C100.307 349.044 76.1477 348.067 53.0418 348.067C46.2283 348.067 36.3307 349.93 30.4108 346.548C27.7104 345.004 25.299 346.886 22.8129 344.648C17.2313 339.625 17.1403 329.439 16.4632 322.668C14.346 301.496 15.6823 279.264 17.006 258.086C17.5348 249.625 17.9347 241.12 19.4481 232.796C21.4295 221.899 19.8823 209.464 19.8823 198.388C19.8823 182.794 19.8823 167.201 19.8823 151.607C19.8823 123.146 20.8592 94.6124 20.8592 66.2389C20.8592 55.8042 24.7667 45.9282 24.7667 35.4673C24.7667 32.8444 23.4991 21.3752 26.2863 20.8685C35.0309 19.2785 44.8549 21.7098 53.6387 21.7911C64.5263 21.8919 75.4236 21.5967 86.3098 21.7911C89.7586 21.8527 92.9274 22.9164 96.2413 23.7448C101.337 25.0187 106.498 24.7217 111.708 24.7217C126.76 24.7217 141.811 24.7217 156.862 24.7217C185.137 24.7217 213.412 24.7217 241.687 24.7217C260.412 24.7217 278.521 18.5716 297.098 17.8836C310.107 17.4018 324.03 14.6704 336.932 12.8907C344.816 11.8033 351.702 11.0455 359.835 11.0455C371.394 11.0455 382.954 11.0455 394.514 11.0455C442.605 11.0455 490.575 10.0686 538.603 10.0686" stroke="white" stroke-width="2.65546" stroke-linecap="round"/>
<path d="M542.508 17.8849C542.508 31.201 540.554 44.4805 540.554 57.9368C540.554 71.8663 540.554 85.7958 540.554 99.7253C540.554 145.24 540.554 190.756 540.554 236.271C540.554 268.725 540.554 301.179 540.554 333.632C540.554 335.905 542.505 353.373 540.011 354.798C538.517 355.652 534.304 354.907 532.685 354.907C522.21 354.907 511.736 354.907 501.262 354.907C471.716 354.907 442.431 356.86 412.909 356.86C385.627 356.86 357.52 354.879 330.309 357.077C302.186 359.35 273.378 357.837 245.158 357.837C229.908 357.837 214.658 357.837 199.408 357.837C184.907 357.837 169.701 358.544 155.448 355.449C128.33 349.562 100.501 347.112 73.1194 342.696C60.003 340.58 46.2725 343.263 33.339 341.013C27.4419 339.988 21.5103 340.253 15.5381 340.253C10.7376 340.253 10.111 340.817 10.111 335.695C10.111 325.629 9.46514 315.335 10.3281 305.303C10.9369 298.226 12.0648 291.241 12.0648 284.137C12.0648 278.348 13.0417 272.679 13.0417 266.934C13.0417 259.467 15.746 252.52 15.9723 245.28C16.5435 227.001 17.926 209.068 17.926 190.792C17.926 150.414 17.926 110.037 17.926 69.6593C17.926 60.795 17.926 51.9308 17.926 43.0666C17.926 39.4981 16.3311 31.3104 18.0889 28.0878C20.4478 23.7631 34.1948 23.7462 38.4404 23.7462C52.0594 23.7462 65.9665 21.2374 79.6862 23.3663C94.6806 25.693 109.478 28.8089 124.568 30.5843C140.385 32.4451 155.939 32.5381 171.838 32.5381C192.737 32.5381 213.716 33.5149 234.684 33.5149C262.434 33.5149 290.185 33.5149 317.935 33.5149C338.891 33.5149 359.205 32.6556 379.804 28.6306C393.507 25.9528 407.029 22.7693 420.995 22.7693C430.761 22.7693 440.146 21.0139 449.759 19.3502C460.483 17.4941 470.538 16.9081 481.399 16.9081C498.381 16.9081 515.326 17.5956 532.142 15.0086C534.844 14.5928 537.813 14.9543 540.554 14.9543" stroke="white" stroke-width="2.65546" stroke-linecap="round"/>
</svg>
