<?xml version="1.0" encoding="UTF-8"?>
<svg id="_레이어_1" data-name="레이어 1" xmlns="http://www.w3.org/2000/svg" viewBox="0 0 1781.31 729.1">
  <defs>
    <style>
      .cls-1 {
        fill: none;
        stroke: #023586;
        stroke-miterlimit: 10;
        stroke-width: 3px;
      }
    </style>
  </defs>
  <path class="cls-1" d="M445.45,246.26s56.7-38.31,116.12-3.41c59.41,34.91,89.79,63.96,140.8,71.17,51.01,7.21,106.56-10.99,137.64-15.75,31.08-4.75,40.64-6.11,64.52-5.03,0,0,1.18-60.89,3.08-76.07l12.1,1.26.62-5.9s-8.38-6.84-6.17-16.02c2.21-9.18,10.12-6.79,14.67-17.29s5.44-16.06,5.44-16.06c0,0,11.3,20.94-7.39,49.74l-.58,5.59,6.21.65-7.87,75.41s2.62,22.95-15.39,21.18c-18.01-1.77-.98-20.69,25.06-17.66,26.04,3.03,110.25,34.73,91.87,42.53-18.38,7.81-159.4,6.26-216.4-21.65l-2.92,27.93s-10.64,55.36,1.73,55.55c12.37.19,11.57-7.11,11.93-15.07.36-7.96-1.72-33.12,6.85-32.54,8.57.58,7.7,17.9,20.58,16.27,12.88-1.64,19.8-19.89,26.88-17.11,7.08,2.78,9.44,5.69,8.45,37.74,0,0-3.14,22.57,20.03,19.97,23.17-2.6,9.92-31.9,18.89-42.73,8.97-10.83,16.41-8.48,22.97,5.38,6.55,13.86,22.53-8.47,26.52-9.15,0,0,14.19-8.24,11.24,18.58-2.96,26.83,24.55,27.82,32.31,24.08,7.76-3.74,16.22-11.17,17.88-28.56,1.66-17.4-1.62-26.52-8.17-20.93-6.54,5.59-9.28,88.86-9.28,88.86,0,0-48.56,17.41-98.05,10.68-49.49-6.74-99.08-12.54-127.73-50.67,0,0-45.33,4.52-31.79,34.09,13.54,29.57,125.17,63.18,222.95,52.06,97.79-11.12,72.2-45.48,72.2-45.48,0,0-5.95-9.09-19.77-14.93,0,0,34.98-22.2,74.72-19.04,41.72,3.32,93.06,48.31,100.5,55.47,24.65,23.7,60.14,38.2,94.42,43.14,27.84,4.01,56.3.83,82.34-9.79,35.92-14.66,76.49-46.86,88.58-117.41"/>
  <path class="cls-1" d="M1.01,584.6s43.3-39.73,169.28-47.88c41.98-2.72,130.37-8.74,164.44-49.52,0,0,21.11,51.27,26.75,105.6,5.64,54.33,15.73,136.39,42.19,134.78,26.46-1.61-12.31-91.64-17.49-104.49-5.18-12.84-20.03-57.69-26.63-81.56-6.6-23.87-13.1-53.44-8.32-65.64,4.78-12.2,15.44-23.49,8.41-48.92-7.03-25.43-21.44-72.94-26.49-71.54,0,0-7.42-1.94,2.07,21.91,9.49,23.84,18.92,58.59,13.52,58.08-5.4-.5-20.63-55.58-20.63-55.58,0,0-6.2-24.39-11.15-20.67,0,0-2.08,1.66.45,9.49,2.53,7.82,22.46,68.12,16.13,70.78-6.34,2.66-21.21-63.57-21.21-63.57,0,0-3.46-13.18-7.17-12.16-3.71,1.02,13.16,63.99,13.16,63.99,0,0,4.9,13.15.69,14.31-4.21,1.16-15.77-47.85-17.11-54.01-1.34-6.16-4.63-22.65-8.67-21.53,0,0-5.08-1.32,4.19,32.2,9.27,33.52,16.11,58.27,16.11,58.27,0,0,3.52,17.34,23.46,19.26,19.93,1.92,78.22,6.84,95.14-30.3,16.93-37.13,1.8-70.84-6.7-83.9-8.51-13.06-21.78-30.65-38.29-27.67-21.69,3.92-29.86,33.45-24.52,66.07,3.77,23.03,9.15,41.4,31.06,55.95,7.41,4.92,18.21,9.47,26.13,38.1,7.92,28.63,29.7,142.81,29.7,142.81,0,0,10.79,81.32,38.96,71.08,0,0,18.53-6.76.78-45.36-17.75-38.61-47.2-123.47-47.2-123.47l-18.09-69.34s49.8,19.79,86.22,12.03c36.35-7.74,54.79-24.12,91.49-51.67,4.41-3.31,8.83-6.45,13.18-9.4,45.58-30.88,100.96-44.16,155.46-36.34,6.19.89,12.43,2.05,18.61,3.55"/>
  <path class="cls-1" d="M1070.66,106.18s41.04,22.51,71.09,12.71c0,0,7.31-2.19,5.72-8.8,0,0-1.77-12.29-29.54-3.88-27.78,8.4-59.2,24.26-47.57,39.04,11.62,14.78,66.33,14.92,90.72,7.12,0,0,12.83-4.79,6.47-16.18-6.35-11.39-43.01-6.99-73.46,8.2-30.45,15.19-30.35,27.88-15.71,34.1,14.64,6.21,59.36,11.52,102.09-22.11,0,0,5.23,63.79-25.07,98.87"/>
  <path class="cls-1" d="M1065.35,182.47s30.11,70.28,79.02,77.12l3,12.41-41.2,29.45s55.12,16.78,98.11-23.69l-41.86-6.63"/>
  <circle class="cls-1" cx="1100.9" cy="82.45" r="13.76" transform="translate(456.59 978.91) rotate(-58.58)"/>
  <circle class="cls-1" cx="659.95" cy="217.59" r="13.76" transform="translate(-29.76 132.86) rotate(-11.24)"/>
  <circle class="cls-1" cx="1578.88" cy="11.39" r="9.88" transform="translate(746.02 1352.78) rotate(-58.58)"/>
  <circle class="cls-1" cx="1411.34" cy="231.36" r="13.76"/>
  <circle class="cls-1" cx="517.73" cy="337.68" r="9.79" transform="translate(-40.35 603.44) rotate(-58.58)"/>
  <path class="cls-1" d="M1478.78,533.28l-189.8-124.96,28.94-88.16,57.39.41c21.42.15,42.57,5.19,61.54,15.13,13.4,7.03,26.99,16.63,33.24,30.23,13.93,30.3-8.98,32.36-23.06,13.89-6.1-8-18.61-34.96,1.47-51.06,20.08-16.1,43.16-7.53,43.16-7.53l14.49,123.38-163.27-106.63-9.72,29.61,164.83,107.88-9.28,28.27-165.95-108.99"/>
  <path class="cls-1" d="M1491.68,321.23s-13.24-86.96,38.2-96.45c68.59-12.64,88.93,128.08,118.06,118.56,20.03-6.55,16.2-81.55,0-92.16-16.2-10.61.62,83.35,19.74,90.05,19.11,6.7,27.56-14.4,31.53-38.97s3.23-56.6-7.94-54.12c-11.17,2.48-4.47,100.4,19.86,96.13,24.33-4.28,45.18-80.73,34.51-94.88s-33.02,83.66-10.18,93.59c22.84,9.93,38.73-44.68,41.7-63.55,2.98-18.87,11.92-79.93-35.5-91.6-47.41-11.67-115.19-9.93-120.4,12.66-5.21,22.59,122.88,18.09,121.64-19.75-1.24-37.84-82.67-34.36-85.89-22.94-3.23,11.42,24.33,13.16,41.7,6.95,17.38-6.21,27.8-25.32,6.95-46.42"/>
</svg>